<?xml version="1.0" standalone="no"?>
<!DOCTYPE svg PUBLIC "-//W3C//DTD SVG 20010904//EN"
 "http://www.w3.org/TR/2001/REC-SVG-20010904/DTD/svg10.dtd">
<svg version="1.0" xmlns="http://www.w3.org/2000/svg"
 width="500.000000pt" height="500.000000pt" viewBox="0 0 500.000000 500.000000"
 preserveAspectRatio="xMidYMid meet">

<g transform="translate(0.000000,500.000000) scale(0.100000,-0.100000)"
fill="#000000" stroke="none">
<path d="M1498 4093 c29 -2 74 -2 100 0 26 2 2 3 -53 3 -55 0 -76 -1 -47 -3z"/>
<path d="M1568 4053 c72 -2 192 -2 265 0 72 1 13 3 -133 3 -146 0 -205 -2
-132 -3z"/>
<path d="M1503 4013 c37 -2 97 -2 135 0 37 2 6 3 -68 3 -74 0 -105 -1 -67 -3z"/>
<path d="M3543 3890 c0 -25 2 -35 4 -22 2 12 2 32 0 45 -2 12 -4 2 -4 -23z"/>
<path d="M1817 3873 c299 -2 787 -2 1085 0 299 1 55 2 -542 2 -597 0 -841 -1
-543 -2z"/>
<path d="M1817 3833 c299 -2 787 -2 1085 0 299 1 55 2 -542 2 -597 0 -841 -1
-543 -2z"/>
<path d="M1817 3793 c299 -2 787 -2 1085 0 299 1 55 2 -542 2 -597 0 -841 -1
-543 -2z"/>
<path d="M3543 3760 c0 -25 2 -35 4 -22 2 12 2 32 0 45 -2 12 -4 2 -4 -23z"/>
<path d="M1817 3753 c299 -2 787 -2 1085 0 299 1 55 2 -542 2 -597 0 -841 -1
-543 -2z"/>
<path d="M2100 3710 c-9 -6 -182 -11 -425 -12 l-410 -3 399 -5 c340 -4 397 -7
383 -19 -10 -7 -17 -19 -17 -27 0 -21 -19 -27 -50 -14 -25 11 -34 9 -65 -10
-43 -26 -55 -47 -55 -94 0 -41 35 -87 82 -107 29 -12 -9 -15 -327 -19 l-360
-5 380 -3 379 -2 39 -42 39 -43 -31 41 c-37 51 -38 54 -6 54 29 0 65 32 65 59
0 32 26 44 98 43 81 0 125 18 157 66 26 38 23 54 -18 100 l-20 22 596 0 c328
0 598 3 600 8 3 4 -299 6 -671 4 -447 -1 -679 1 -686 8 -13 13 -56 13 -76 0z
m127 -26 c-3 -3 -12 -4 -19 -1 -8 3 -5 6 6 6 11 1 17 -2 13 -5z m1 -84 c37
-28 97 -22 125 11 9 12 17 17 17 11 0 -6 -12 -20 -26 -31 -33 -26 -87 -27
-122 -2 -40 28 -69 34 -106 21 -59 -19 -87 -88 -45 -110 15 -9 24 -8 35 1 31
25 14 -23 -20 -57 -37 -37 -62 -42 -106 -19 -53 28 -67 87 -27 122 37 34 54
39 20 6 -20 -19 -33 -41 -33 -56 0 -30 51 -77 84 -77 30 0 88 51 66 58 -51 16
-66 74 -27 109 54 50 110 54 165 13z"/>
<path d="M2371 3548 c-29 -37 -84 -61 -123 -56 -36 6 -37 -14 -2 -41 45 -36
65 -37 90 -5 13 15 26 25 30 22 3 -4 7 -34 7 -67 0 -33 4 -58 8 -55 4 2 18
-13 31 -33 13 -21 29 -38 36 -39 6 -1 16 -2 22 -2 16 -3 34 -45 41 -97 l6 -50
2 44 1 45 31 -30 c17 -16 40 -41 51 -56 l19 -28 -30 6 c-23 5 -35 1 -55 -19
l-26 -26 -1 32 c-1 25 -3 22 -9 -16 -11 -60 -16 -67 -36 -39 -17 24 -40 29
-46 10 -4 -10 -10 -10 -30 -1 -22 10 -27 9 -32 -3 -9 -23 -7 -34 4 -34 6 0 10
7 10 15 0 17 16 20 25 4 5 -7 14 -4 26 7 18 16 20 16 40 -10 23 -29 38 -26 40
7 1 14 4 9 9 -13 l7 -35 2 38 c1 41 29 77 61 77 63 0 101 -127 140 -470 7 -58
7 -56 4 25 -2 50 -6 110 -9 135 l-6 45 335 159 c185 88 335 161 333 163 -2 2
-151 -67 -331 -153 -181 -86 -331 -152 -335 -148 -4 5 -13 38 -19 73 -10 56
-48 148 -96 229 -7 13 -27 33 -44 45 -16 12 -43 37 -60 55 -16 17 -36 32 -44
32 -7 0 -23 15 -35 34 -21 32 -21 35 -4 50 16 14 77 16 569 16 304 0 553 -1
554 -2 2 -2 5 -284 8 -628 l5 -625 3 613 c1 408 -1 620 -8 633 -10 18 -27 19
-563 19 l-553 0 0 33 c-1 52 -15 147 -22 146 -4 0 -18 -14 -31 -31z"/>
<path d="M2146 3424 c-9 -8 -16 -23 -15 -32 0 -12 3 -10 9 6 5 12 20 27 32 32
16 6 18 9 6 9 -9 1 -24 -6 -32 -15z"/>
<path d="M1236 3375 c-3 -9 -5 -148 -4 -308 l2 -292 6 305 c3 168 4 306 4 308
-1 2 -4 -4 -8 -13z"/>
<path d="M2080 3360 c8 -5 22 -9 30 -9 10 0 8 3 -5 9 -27 12 -43 12 -25 0z"/>
<path d="M2170 3351 c0 -6 5 -13 10 -16 6 -3 10 1 10 9 0 9 -4 16 -10 16 -5 0
-10 -4 -10 -9z"/>
<path d="M2210 3332 c0 -5 6 -17 14 -27 10 -14 11 -26 5 -40 -10 -20 -10 -20
5 -1 24 30 21 76 -4 76 -11 0 -20 -4 -20 -8z m30 -12 c0 -5 -2 -10 -4 -10 -3
0 -8 5 -11 10 -3 6 -1 10 4 10 6 0 11 -4 11 -10z"/>
<path d="M2106 3316 c3 -9 11 -16 16 -16 13 0 5 23 -10 28 -7 2 -10 -2 -6 -12z"/>
<path d="M2361 3325 c1 -19 18 -51 18 -35 0 8 -4 22 -9 30 -5 8 -9 11 -9 5z"/>
<path d="M2142 3295 c0 -16 2 -22 5 -12 2 9 2 23 0 30 -3 6 -5 -1 -5 -18z"/>
<path d="M2100 3270 c13 -44 48 -83 105 -119 57 -35 73 -37 101 -16 24 18 34
19 34 0 0 -8 6 -12 13 -9 8 3 18 -5 25 -18 6 -13 11 -18 11 -11 1 6 -10 25
-23 40 l-25 29 20 30 c10 16 19 33 19 38 0 6 -13 -11 -30 -37 -42 -67 -70 -77
-126 -48 -52 28 -114 93 -114 120 0 11 -4 22 -9 26 -6 3 -6 -6 -1 -25z"/>
<path d="M1568 3283 c72 -2 192 -2 265 0 72 1 13 3 -133 3 -146 0 -205 -2
-132 -3z"/>
<path d="M2442 3230 c0 -19 2 -27 5 -17 2 9 2 25 0 35 -3 9 -5 1 -5 -18z"/>
<path d="M1503 3243 c37 -2 97 -2 135 0 37 2 6 3 -68 3 -74 0 -105 -1 -67 -3z"/>
<path d="M2148 3243 c7 -3 16 -2 19 1 4 3 -2 6 -13 5 -11 0 -14 -3 -6 -6z"/>
<path d="M2431 3174 c0 -11 3 -14 6 -6 3 7 2 16 -1 19 -3 4 -6 -2 -5 -13z"/>
<path d="M3408 3183 c-10 -2 -18 -8 -18 -13 0 -5 7 -7 15 -4 13 5 15 -50 15
-460 l0 -466 -340 0 -340 0 -2 158 c-2 134 -3 144 -7 67 -6 -85 -7 -90 -31
-96 -33 -9 -250 -11 -319 -2 l-53 6 7 76 c4 42 9 78 11 80 2 2 39 -10 81 -27
43 -17 92 -33 108 -36 17 -4 -1 5 -40 19 -118 43 -245 110 -359 189 -60 42
-114 75 -120 72 -8 -3 -8 -5 1 -5 6 -1 58 -34 116 -73 57 -40 113 -78 123 -84
18 -11 18 -13 -6 -40 l-25 -29 30 26 c26 23 34 25 54 16 23 -11 23 -14 17 -94
-4 -45 -17 -113 -30 -150 l-23 -68 -399 -5 -399 -5 392 -3 c215 -1 394 -5 397
-10 2 -4 -5 -29 -16 -55 l-21 -47 -366 -2 -366 -3 363 -2 c199 -2 362 -6 362
-8 0 -3 -26 -58 -59 -123 -103 -205 -164 -352 -164 -393 l0 -39 -361 -2 -361
-3 369 -5 c281 -4 370 -8 373 -17 4 -10 -77 -13 -369 -16 l-373 -2 376 -3
c301 -2 379 -5 388 -15 6 -8 8 -17 4 -20 -3 -4 -1 -7 5 -7 11 0 165 -186 292
-351 29 -38 56 -61 75 -67 22 -6 31 -15 33 -35 2 -15 -2 -27 -8 -27 -6 0 -8
-5 -5 -10 6 -10 -73 -49 -103 -51 -11 0 -12 -2 -5 -6 7 -2 33 3 58 13 49 18
50 18 58 -11 5 -16 -7 -28 -69 -67 -102 -65 -99 -82 13 -86 66 -2 94 2 154 23
40 14 77 29 82 34 5 5 -28 -4 -73 -20 -62 -22 -99 -29 -155 -29 -110 0 -109
14 5 84 41 25 83 46 95 45 11 0 45 -8 75 -18 l55 -17 -30 -17 c-35 -19 -28
-23 10 -5 33 15 32 39 -6 146 -20 58 -33 120 -39 187 -5 55 -14 115 -19 133
-5 18 -10 35 -10 37 -2 14 -62 124 -71 130 -34 21 18 25 333 28 l342 2 -351 3
c-297 2 -353 4 -364 17 -11 13 33 15 366 18 l379 2 -378 3 c-376 2 -378 2
-367 22 6 11 15 18 20 15 6 -3 7 0 5 8 -5 12 57 132 154 297 45 77 101 192
101 207 0 10 83 13 408 13 224 0 412 4 419 8 6 4 -175 6 -403 4 -294 -2 -414
1 -414 8 0 6 5 31 11 56 l11 44 349 0 349 0 0 480 c0 264 -1 479 -2 479 -2 -1
-11 -3 -20 -6z m-708 -843 c0 -5 -4 -10 -10 -10 -5 0 -10 5 -10 10 0 6 5 10
10 10 6 0 10 -4 10 -10z m-76 -46 c-19 -45 -12 -77 20 -92 31 -14 36 -8 36 45
0 24 5 43 10 43 6 0 8 -10 6 -22 -3 -13 -7 -41 -10 -63 -7 -53 -36 -148 -43
-142 -3 3 3 29 12 58 12 36 14 54 7 57 -28 9 -62 46 -62 66 0 30 20 86 30 86
5 0 2 -16 -6 -36z m-222 -100 c-10 -59 -96 -401 -104 -414 -12 -20 -12 -18 47
222 49 197 49 197 30 220 l-20 22 25 -16 c15 -9 24 -23 22 -34z m115 -366
c-112 -198 -167 -302 -167 -313 0 -3 11 -5 25 -5 21 0 25 -5 25 -28 0 -20 9
-35 30 -50 45 -34 58 -68 85 -227 19 -107 33 -162 55 -205 17 -33 29 -70 29
-82 -1 -21 -2 -21 -6 -3 -3 11 -18 47 -34 81 -20 42 -37 106 -54 204 -28 159
-42 197 -85 229 -19 14 -30 31 -30 46 0 20 -5 25 -25 25 -34 0 -32 21 8 95
120 218 251 445 254 441 3 -2 -47 -96 -110 -208z m-247 -189 c-6 -46 -13 -86
-15 -87 -9 -9 -26 11 -21 24 3 8 1 14 -4 14 -5 0 -12 9 -15 20 -5 14 4 37 25
71 18 27 35 48 37 45 2 -2 -1 -41 -7 -87z m-10 -109 c0 -5 -2 -10 -4 -10 -3 0
-8 5 -11 10 -3 6 -1 10 4 10 6 0 11 -4 11 -10z m116 -272 c19 -45 33 -86 31
-91 -2 -6 -11 12 -21 39 -25 65 -69 153 -101 199 -14 21 -25 45 -25 53 0 24
77 -109 116 -200z m64 -156 c0 -15 -2 -15 -10 -2 -13 20 -13 33 0 25 6 -3 10
-14 10 -23z"/>
<path d="M1432 2708 c-2 -472 -2 -478 18 -478 11 0 20 4 20 8 0 4 65 39 145
77 80 37 144 70 142 72 -2 2 -74 -30 -160 -71 l-157 -75 -3 472 -2 472 -3
-477z"/>
<path d="M2421 3134 c0 -11 3 -14 6 -6 3 7 2 16 -1 19 -3 4 -6 -2 -5 -13z"/>
<path d="M2333 3060 c0 -30 2 -43 4 -27 2 15 2 39 0 55 -2 15 -4 2 -4 -28z"/>
<path d="M2411 3098 c-1 -10 -6 -18 -12 -18 -5 0 -7 -5 -3 -11 9 -15 28 16 20
34 -2 7 -5 4 -5 -5z"/>
<path d="M1765 3029 c-4 -6 -5 -12 -2 -15 2 -3 7 2 10 11 7 17 1 20 -8 4z"/>
<path d="M1790 3019 c0 -5 5 -7 10 -4 6 3 10 8 10 11 0 2 -4 4 -10 4 -5 0 -10
-5 -10 -11z"/>
<path d="M1815 2996 c-10 -7 -27 -11 -37 -8 -25 6 -23 -10 6 -37 l24 -22 -21
-39 c-18 -32 -20 -41 -9 -62 7 -12 23 -28 35 -34 19 -8 23 -7 23 6 0 12 -7 16
-21 13 -11 -2 -5 5 15 16 19 11 42 20 50 20 9 0 5 -5 -8 -11 -18 -9 -22 -18
-20 -42 3 -26 7 -31 28 -30 14 1 31 -7 38 -17 7 -11 22 -19 33 -19 14 0 18 -4
13 -12 -5 -8 0 -7 11 2 17 14 17 15 -14 18 -23 2 -35 10 -41 28 -9 24 -30 34
-30 14 0 -5 -8 -10 -17 -10 -14 0 -15 2 -4 9 11 7 11 9 0 14 -10 4 4 22 41 56
l55 51 -21 17 c-12 10 -24 25 -27 33 -4 12 -6 12 -6 -2 -1 -9 9 -24 21 -32 12
-9 19 -19 15 -22 -11 -11 -57 37 -57 58 0 51 -37 72 -75 44z m59 -12 c11 -29
6 -33 -23 -16 -16 9 -27 20 -25 24 9 14 42 8 48 -8z m-41 -78 c3 -8 -4 -21
-16 -30 -19 -13 -16 -13 21 1 30 12 46 13 53 6 8 -8 -3 -17 -36 -32 -77 -34
-92 -24 -60 39 17 33 30 38 38 16z"/>
<path d="M1915 2999 c-4 -6 -4 -13 -1 -16 3 -4 6 -1 6 5 0 20 16 13 28 -12 6
-13 30 -37 53 -52 24 -16 46 -40 50 -54 6 -23 7 -23 8 -3 1 20 -49 73 -69 73
-5 0 -18 16 -30 35 -22 36 -34 43 -45 24z"/>
<path d="M2322 2988 c2 -5 8 -9 13 -9 5 0 11 4 13 9 1 5 -4 9 -13 9 -9 0 -14
-4 -13 -9z"/>
<path d="M2366 2988 c-3 -7 -16 -49 -30 -92 -14 -44 -24 -81 -22 -83 2 -3 12
20 21 49 10 29 21 58 25 63 9 13 21 75 14 75 -2 0 -6 -6 -8 -12z"/>
<path d="M2050 2956 c0 -3 8 -14 18 -24 9 -10 23 -27 30 -38 7 -10 6 -5 -2 12
-14 28 -46 64 -46 50z"/>
<path d="M2112 2935 c4 -6 12 -22 17 -36 6 -15 10 -18 10 -8 1 9 -7 25 -16 36
-10 10 -15 14 -11 8z"/>
<path d="M2513 2855 c0 -38 2 -53 4 -32 2 20 2 52 0 70 -2 17 -4 1 -4 -38z"/>
<path d="M2358 2789 c-3 -64 -10 -104 -17 -108 -18 -11 80 -51 124 -51 23 0
48 -9 68 -24 35 -27 106 -47 137 -39 13 3 20 13 19 27 -1 15 -3 16 -6 5 -9
-37 -100 -25 -154 20 l-34 29 18 48 c9 27 17 58 16 69 0 17 -19 -34 -36 -102
-6 -27 -45 -31 -98 -9 l-34 14 6 111 c3 61 4 111 1 111 -3 0 -8 -45 -10 -101z"/>
<path d="M2061 2823 c-1 -19 14 -30 91 -69 l92 -46 33 36 c18 20 33 41 33 48
0 7 -9 -1 -19 -19 -34 -55 -46 -55 -137 -10 -57 28 -84 47 -87 62 -4 18 -4 18
-6 -2z"/>
<path d="M1983 2704 c-25 -27 -19 -33 8 -8 10 9 22 13 28 10 9 -6 101 -133
101 -140 0 -1 -22 -13 -50 -26 -27 -13 -48 -25 -46 -27 2 -3 27 8 56 22 47 24
53 25 69 11 36 -32 27 -15 -13 27 -22 23 -59 68 -81 100 -22 31 -42 56 -45 56
-3 -1 -15 -12 -27 -25z"/>
<path d="M2693 2670 c0 -30 2 -43 4 -27 2 15 2 39 0 55 -2 15 -4 2 -4 -28z"/>
<path d="M1233 2655 c0 -33 2 -45 4 -27 2 18 2 45 0 60 -2 15 -4 0 -4 -33z"/>
<path d="M1935 2700 c3 -5 8 -10 11 -10 2 0 4 5 4 10 0 6 -5 10 -11 10 -5 0
-7 -4 -4 -10z"/>
<path d="M2290 2690 c8 -5 20 -10 25 -10 6 0 3 5 -5 10 -8 5 -19 10 -25 10 -5
0 -3 -5 5 -10z"/>
<path d="M2636 2523 c-4 -18 -17 -40 -29 -49 -12 -9 -16 -14 -8 -12 23 7 53
53 49 74 -3 14 -6 10 -12 -13z"/>
<path d="M1234 2365 c0 -88 2 -123 3 -77 2 46 2 118 0 160 -1 42 -3 5 -3 -83z"/>
<path d="M1884 2451 c-65 -33 -116 -60 -112 -60 7 -1 228 106 237 114 12 12
-14 1 -125 -54z"/>
<path d="M1236 1854 c-8 -20 -8 -468 0 -488 3 -9 11 -16 17 -16 7 0 7 4 -1 12
-9 9 -12 78 -12 250 0 238 0 239 23 248 22 9 22 9 1 9 -12 1 -25 -6 -28 -15z"/>
<path d="M3528 1858 c7 -7 13 -35 14 -62 1 -46 2 -47 5 -12 5 48 -3 86 -19 86
-9 0 -9 -3 0 -12z"/>
<path d="M1488 1803 c28 -2 76 -2 105 0 28 2 5 3 -53 3 -58 0 -81 -1 -52 -3z"/>
<path d="M1568 1763 c72 -2 192 -2 265 0 72 1 13 3 -133 3 -146 0 -205 -2
-132 -3z"/>
<path d="M1503 1723 c37 -2 97 -2 135 0 37 2 6 3 -68 3 -74 0 -105 -1 -67 -3z"/>
<path d="M3544 1535 c0 -82 2 -115 3 -72 2 43 2 110 0 150 -1 40 -3 5 -3 -78z"/>
<path d="M3373 1543 c15 -2 37 -2 50 0 12 2 0 4 -28 4 -27 0 -38 -2 -22 -4z"/>
<path d="M3388 1503 c12 -2 30 -2 40 0 9 3 -1 5 -23 4 -22 0 -30 -2 -17 -4z"/>
<path d="M1943 1463 c15 -2 39 -2 55 0 15 2 2 4 -28 4 -30 0 -43 -2 -27 -4z"/>
<path d="M2274 949 c-18 -20 -18 -21 1 -35 10 -8 24 -14 29 -14 6 1 0 7 -14
15 -25 14 -25 14 15 16 38 2 39 2 7 6 -28 4 -31 7 -21 19 18 22 4 16 -17 -7z"/>
<path d="M2390 960 c-8 -5 -10 -10 -5 -10 6 0 17 5 25 10 8 5 11 10 5 10 -5 0
-17 -5 -25 -10z"/>
<path d="M2538 823 c7 -3 16 -2 19 1 4 3 -2 6 -13 5 -11 0 -14 -3 -6 -6z"/>
<path d="M2448 803 c6 -2 18 -2 25 0 6 3 1 5 -13 5 -14 0 -19 -2 -12 -5z"/>
<path d="M2363 793 c15 -2 37 -2 50 0 12 2 0 4 -28 4 -27 0 -38 -2 -22 -4z"/>
</g>
</svg>
